<?xml version="1.0" standalone="no"?>
<!DOCTYPE svg PUBLIC "-//W3C//DTD SVG 20010904//EN"
 "http://www.w3.org/TR/2001/REC-SVG-20010904/DTD/svg10.dtd">
<svg version="1.0" xmlns="http://www.w3.org/2000/svg"
 width="295.000000pt" height="112.000000pt" viewBox="0 0 295.000000 112.000000"
 preserveAspectRatio="xMidYMid meet">

<g transform="translate(0.000000,112.000000) scale(0.100000,-0.100000)"
fill="#000000" stroke="none">
<path d="M95 1106 c-37 -16 -70 -52 -84 -89 -7 -17 -11 -115 -11 -243 l0 -214
80 0 80 0 0 184 c0 190 3 216 25 216 21 0 25 -36 25 -223 l0 -178 78 3 77 3 5
195 c4 164 7 195 20 195 13 0 16 -62 20 -475 l5 -475 80 0 80 0 -3 500 c-4
440 -6 504 -20 535 -43 90 -166 107 -243 34 l-26 -24 -19 21 c-43 48 -109 61
-169 35z"/>
<path d="M2850 1023 c-94 -36 -128 -141 -79 -246 27 -56 18 -83 -25 -80 -26 2
-26 1 -26 -62 l0 -64 33 -6 c93 -18 187 58 187 152 0 14 -12 52 -27 85 -29 65
-25 90 16 96 19 3 21 10 21 62 0 44 -4 59 -16 64 -19 7 -63 7 -84 -1z"/>
<path d="M730 1002 c-22 -12 -44 -35 -57 -62 -21 -41 -23 -58 -23 -212 l0
-168 65 0 65 0 0 55 c0 48 2 55 20 55 18 0 20 7 20 60 0 53 -2 60 -20 60 -16
0 -20 7 -20 38 0 46 12 65 36 60 18 -3 19 -16 22 -166 l2 -162 65 0 65 0 0
175 c0 198 -8 232 -62 265 -43 26 -130 27 -178 2z"/>
<path d="M1052 793 l3 -228 63 -3 62 -3 0 165 c0 105 4 167 11 171 5 4 21 4
35 1 35 -9 31 -59 -5 -64 -22 -4 -23 -6 -19 -70 3 -47 14 -88 36 -134 l31 -68
66 0 c36 0 65 4 65 8 0 4 -16 48 -36 96 l-35 89 21 22 c67 72 34 198 -63 234
-16 6 -75 11 -133 11 l-104 0 2 -227z"/>
<path d="M1595 1001 c-47 -22 -99 -74 -114 -114 -18 -46 -13 -133 8 -175 23
-45 66 -87 104 -101 16 -6 31 -20 34 -31 5 -17 14 -20 59 -20 45 0 54 3 54 18
0 11 16 26 45 40 52 25 100 91 110 153 28 168 -146 301 -300 230z m144 -127
c26 -21 31 -33 31 -69 0 -26 -6 -47 -15 -55 -12 -10 -15 -10 -15 4 0 13 -11
16 -54 16 -49 0 -55 -2 -58 -22 -4 -21 -6 -19 -22 13 -22 44 -16 80 19 115 32
32 75 31 114 -2z"/>
<path d="M1982 841 c3 -163 5 -182 24 -207 37 -50 67 -66 127 -66 66 -1 111
22 144 72 22 31 23 43 23 206 l0 174 -65 0 -64 0 -3 -157 c-3 -145 -4 -158
-22 -161 -10 -2 -22 2 -27 10 -5 7 -9 79 -9 161 l0 147 -66 0 -66 0 4 -179z"/>
<path d="M2464 1006 c-17 -8 -40 -26 -52 -41 -20 -26 -22 -39 -22 -176 0 -144
1 -148 26 -178 31 -37 77 -51 167 -51 l67 0 0 65 0 64 -62 3 c-55 3 -63 5 -63
23 0 17 8 20 58 23 l57 3 0 49 0 50 -49 0 c-28 0 -53 6 -60 13 -18 22 8 37 66
37 l53 0 0 65 0 65 -77 0 c-43 -1 -92 -7 -109 -14z"/>
<path d="M650 401 c0 -55 2 -59 26 -65 20 -5 25 -12 22 -34 -2 -19 -9 -28 -25
-30 -21 -3 -23 -9 -23 -63 0 -48 7 -76 34 -135 l35 -74 65 0 c36 0 66 3 66 7
0 4 -16 47 -37 95 l-36 88 22 24 c86 91 11 246 -120 246 -29 0 -29 0 -29 -59z"/>
<path d="M978 444 c-49 -26 -58 -59 -58 -209 0 -198 19 -224 173 -228 l82 -2
0 65 0 65 -62 3 c-55 3 -63 6 -63 22 0 18 7 20 61 20 l60 0 -3 53 -3 52 -52 3
c-45 3 -53 6 -53 23 0 17 7 19 60 19 l60 0 0 65 0 65 -87 0 c-58 -1 -97 -6
-115 -16z"/>
<path d="M1250 230 l0 -231 68 3 67 3 3 164 3 163 56 -4 c46 -4 61 -10 81 -33
20 -24 23 -36 19 -69 -7 -54 -44 -86 -98 -86 l-39 0 0 -71 0 -72 58 6 c138 12
216 97 216 232 0 78 -13 112 -65 163 -49 48 -104 62 -246 62 l-123 0 0 -230z"/>
<path d="M1770 288 c0 -145 3 -179 18 -208 48 -97 206 -101 276 -7 19 26 21
44 24 208 l3 179 -65 0 -66 0 0 -147 c0 -82 -4 -154 -9 -161 -5 -8 -17 -12
-27 -10 -18 3 -19 16 -22 161 l-3 157 -64 0 -65 0 0 -172z"/>
<path d="M2326 446 c-53 -20 -85 -45 -119 -92 -53 -76 -46 -200 15 -270 112
-127 314 -100 384 50 33 72 32 86 -10 86 -18 0 -47 3 -64 6 -28 6 -32 3 -45
-29 -30 -70 -94 -87 -148 -39 -50 45 -41 134 18 161 44 20 74 13 110 -25 l34
-36 65 7 c61 6 64 8 58 28 -19 62 -62 115 -114 142 -46 24 -136 29 -184 11z"/>
<path d="M2715 444 c-20 -20 -16 -42 10 -60 18 -12 24 -11 43 2 27 19 28 50 3
64 -27 14 -37 13 -56 -6z"/>
</g>
</svg>
